<svg width="123" height="112" viewBox="0 0 123 112" fill="none" xmlns="http://www.w3.org/2000/svg">
<path fill-rule="evenodd" clip-rule="evenodd" d="M3 20C3.789 20 4.563 19.6805 5.121 19.121C5.6805 18.563 6 17.7905 6 17C6 16.2095 5.6805 15.437 5.121 14.879C4.563 14.3195 3.789 14 3 14C2.2095 14 1.437 14.3195 0.8775 14.879C0.3195 15.437 0 16.2095 0 17C0 17.7905 0.3195 18.563 0.8775 19.121C1.437 19.6805 2.2095 20 3 20Z" fill="#130D3A"/>
<path fill-rule="evenodd" clip-rule="evenodd" d="M35.9925 20H36.0075C37.6608 20 39 18.656 39 17C39 15.344 37.6608 14 36.0075 14H35.9925C34.3406 14 33 15.344 33 17C33 18.656 34.3406 20 35.9925 20Z" fill="#130D3A"/>
<path fill-rule="evenodd" clip-rule="evenodd" d="M19.9925 20H20.0075C21.6594 20 23 18.656 23 17C23 15.344 21.6594 14 20.0075 14H19.9925C18.3406 14 17 15.344 17 17C17 18.656 18.3406 20 19.9925 20Z" fill="#130D3A"/>
<path fill-rule="evenodd" clip-rule="evenodd" d="M53 20C53.789 20 54.563 19.6805 55.121 19.121C55.6805 18.563 56 17.7905 56 17C56 16.2095 55.6805 15.437 55.121 14.879C54.563 14.3195 53.789 14 53 14C52.2095 14 51.437 14.3195 50.8775 14.879C50.3195 15.437 50 16.2095 50 17C50 17.7905 50.3195 18.563 50.8775 19.121C51.437 19.6805 52.2095 20 53 20Z" fill="#130D3A"/>
<path fill-rule="evenodd" clip-rule="evenodd" d="M70 20C70.7905 20 71.563 19.6805 72.1225 19.121C72.6805 18.563 73 17.7905 73 17C73 16.2095 72.6805 15.437 72.1225 14.879C71.563 14.3195 70.7905 14 70 14C69.211 14 68.437 14.3195 67.879 14.879C67.3195 15.437 67 16.2095 67 17C67 17.7905 67.3195 18.563 67.879 19.121C68.437 19.6805 69.211 20 70 20Z" fill="#130D3A"/>
<path fill-rule="evenodd" clip-rule="evenodd" d="M102.993 20H103.007C104.661 20 106 18.656 106 17C106 15.344 104.661 14 103.007 14H102.993C101.341 14 100 15.344 100 17C100 18.656 101.341 20 102.993 20Z" fill="#130D3A"/>
<path fill-rule="evenodd" clip-rule="evenodd" d="M85.9925 20H86.0075C87.6594 20 89 18.656 89 17C89 15.344 87.6594 14 86.0075 14H85.9925C84.3406 14 83 15.344 83 17C83 18.656 84.3406 20 85.9925 20Z" fill="#130D3A"/>
<mask id="mask0_127_199" style="mask-type:luminance" maskUnits="userSpaceOnUse" x="116" y="13" width="7" height="8">
<path fill-rule="evenodd" clip-rule="evenodd" d="M116.303 13.7878H122.702V20.1878H116.303V13.7878Z" fill="white"/>
</mask>
<g mask="url(#mask0_127_199)">
<path fill-rule="evenodd" clip-rule="evenodd" d="M119.503 20.1878C120.344 20.1878 121.17 19.847 121.765 19.2502C122.362 18.655 122.703 17.831 122.703 16.9878C122.703 16.1446 122.362 15.3206 121.765 14.7254C121.17 14.1286 120.344 13.7878 119.503 13.7878C118.66 13.7878 117.836 14.1286 117.239 14.7254C116.644 15.3206 116.303 16.1446 116.303 16.9878C116.303 17.831 116.644 18.655 117.239 19.2502C117.836 19.847 118.66 20.1878 119.503 20.1878Z" fill="#130D3A"/>
</g>
<path fill-rule="evenodd" clip-rule="evenodd" d="M3 7C3.789 7 4.563 6.6805 5.121 6.121C5.6805 5.563 6 4.789 6 4C6 3.2095 5.6805 2.437 5.121 1.8775C4.563 1.3195 3.789 1 3 1C2.2095 1 1.437 1.3195 0.8775 1.8775C0.3195 2.437 0 3.2095 0 4C0 4.789 0.3195 5.563 0.8775 6.121C1.437 6.6805 2.2095 7 3 7Z" fill="#130D3A"/>
<path fill-rule="evenodd" clip-rule="evenodd" d="M35.9925 7H36.0075C37.6608 7 39 5.656 39 4C39 2.344 37.6608 1 36.0075 1H35.9925C34.3406 1 33 2.344 33 4C33 5.656 34.3406 7 35.9925 7Z" fill="#130D3A"/>
<path fill-rule="evenodd" clip-rule="evenodd" d="M19.9925 7H20.0075C21.6594 7 23 5.656 23 4C23 2.344 21.6594 1 20.0075 1H19.9925C18.3406 1 17 2.344 17 4C17 5.656 18.3406 7 19.9925 7Z" fill="#130D3A"/>
<path fill-rule="evenodd" clip-rule="evenodd" d="M53 7C53.789 7 54.563 6.6805 55.121 6.121C55.6805 5.563 56 4.789 56 4C56 3.2095 55.6805 2.437 55.121 1.8775C54.563 1.3195 53.789 1 53 1C52.2095 1 51.437 1.3195 50.8775 1.8775C50.3195 2.437 50 3.2095 50 4C50 4.789 50.3195 5.563 50.8775 6.121C51.437 6.6805 52.2095 7 53 7Z" fill="#130D3A"/>
<path fill-rule="evenodd" clip-rule="evenodd" d="M70 7C70.7905 7 71.563 6.6805 72.1225 6.121C72.6805 5.563 73 4.789 73 4C73 3.2095 72.6805 2.437 72.1225 1.8775C71.563 1.3195 70.7905 1 70 1C69.211 1 68.437 1.3195 67.879 1.8775C67.3195 2.437 67 3.2095 67 4C67 4.789 67.3195 5.563 67.879 6.121C68.437 6.6805 69.211 7 70 7Z" fill="#130D3A"/>
<path fill-rule="evenodd" clip-rule="evenodd" d="M102.993 7H103.007C104.661 7 106 5.656 106 4C106 2.344 104.661 1 103.007 1H102.993C101.341 1 100 2.344 100 4C100 5.656 101.341 7 102.993 7Z" fill="#130D3A"/>
<path fill-rule="evenodd" clip-rule="evenodd" d="M85.9925 7H86.0075C87.6594 7 89 5.656 89 4C89 2.344 87.6594 1 86.0075 1H85.9925C84.3406 1 83 2.344 83 4C83 5.656 84.3406 7 85.9925 7Z" fill="#130D3A"/>
<mask id="mask1_127_199" style="mask-type:luminance" maskUnits="userSpaceOnUse" x="116" y="0" width="7" height="7">
<path fill-rule="evenodd" clip-rule="evenodd" d="M116.303 0.443237H122.702V6.84324H116.303V0.443237Z" fill="white"/>
</mask>
<g mask="url(#mask1_127_199)">
<path fill-rule="evenodd" clip-rule="evenodd" d="M119.503 6.84324C120.344 6.84324 121.17 6.50244 121.765 5.90564C122.362 5.31044 122.703 4.48484 122.703 3.64324C122.703 2.80004 122.362 1.97604 121.765 1.37924C121.17 0.784037 120.344 0.443237 119.503 0.443237C118.66 0.443237 117.836 0.784037 117.239 1.37924C116.644 1.97604 116.303 2.80004 116.303 3.64324C116.303 4.48484 116.644 5.31044 117.239 5.90564C117.836 6.50244 118.66 6.84324 119.503 6.84324Z" fill="#130D3A"/>
</g>
<path fill-rule="evenodd" clip-rule="evenodd" d="M3 33C3.789 33 4.563 32.6805 5.121 32.121C5.6805 31.563 6 30.7905 6 30C6 29.211 5.6805 28.437 5.121 27.879C4.563 27.3195 3.789 27 3 27C2.2095 27 1.437 27.3195 0.8775 27.879C0.3195 28.437 0 29.211 0 30C0 30.7905 0.3195 31.563 0.8775 32.121C1.437 32.6805 2.2095 33 3 33Z" fill="#130D3A"/>
<path fill-rule="evenodd" clip-rule="evenodd" d="M35.9925 33H36.0075C37.6608 33 39 31.656 39 30C39 28.344 37.6608 27 36.0075 27H35.9925C34.3406 27 33 28.344 33 30C33 31.656 34.3406 33 35.9925 33Z" fill="#130D3A"/>
<path fill-rule="evenodd" clip-rule="evenodd" d="M19.9925 33H20.0075C21.6594 33 23 31.656 23 30C23 28.344 21.6594 27 20.0075 27H19.9925C18.3406 27 17 28.344 17 30C17 31.656 18.3406 33 19.9925 33Z" fill="#130D3A"/>
<path fill-rule="evenodd" clip-rule="evenodd" d="M53 33C53.789 33 54.563 32.6805 55.121 32.121C55.6805 31.563 56 30.7905 56 30C56 29.211 55.6805 28.437 55.121 27.879C54.563 27.3195 53.789 27 53 27C52.2095 27 51.437 27.3195 50.8775 27.879C50.3195 28.437 50 29.211 50 30C50 30.7905 50.3195 31.563 50.8775 32.121C51.437 32.6805 52.2095 33 53 33Z" fill="#130D3A"/>
<path fill-rule="evenodd" clip-rule="evenodd" d="M70 33C70.7905 33 71.563 32.6805 72.1225 32.121C72.6805 31.563 73 30.7905 73 30C73 29.211 72.6805 28.437 72.1225 27.879C71.563 27.3195 70.7905 27 70 27C69.211 27 68.437 27.3195 67.879 27.879C67.3195 28.437 67 29.211 67 30C67 30.7905 67.3195 31.563 67.879 32.121C68.437 32.6805 69.211 33 70 33Z" fill="#130D3A"/>
<path fill-rule="evenodd" clip-rule="evenodd" d="M102.993 33H103.007C104.661 33 106 31.656 106 30C106 28.344 104.661 27 103.007 27H102.993C101.341 27 100 28.344 100 30C100 31.656 101.341 33 102.993 33Z" fill="#130D3A"/>
<path fill-rule="evenodd" clip-rule="evenodd" d="M85.9925 33H86.0075C87.6594 33 89 31.656 89 30C89 28.344 87.6594 27 86.0075 27H85.9925C84.3406 27 83 28.344 83 30C83 31.656 84.3406 33 85.9925 33Z" fill="#130D3A"/>
<mask id="mask2_127_199" style="mask-type:luminance" maskUnits="userSpaceOnUse" x="116" y="27" width="7" height="7">
<path fill-rule="evenodd" clip-rule="evenodd" d="M116.303 27.1323H122.702V33.5323H116.303V27.1323Z" fill="white"/>
</mask>
<g mask="url(#mask2_127_199)">
<path fill-rule="evenodd" clip-rule="evenodd" d="M119.503 33.5323C120.344 33.5323 121.17 33.1915 121.765 32.5947C122.362 31.9995 122.703 31.1755 122.703 30.3323C122.703 29.4907 122.362 28.6651 121.765 28.0699C121.17 27.4731 120.344 27.1323 119.503 27.1323C118.66 27.1323 117.836 27.4731 117.239 28.0699C116.644 28.6651 116.303 29.4907 116.303 30.3323C116.303 31.1755 116.644 31.9995 117.239 32.5947C117.836 33.1915 118.66 33.5323 119.503 33.5323Z" fill="#130D3A"/>
</g>
<path fill-rule="evenodd" clip-rule="evenodd" d="M3 46C3.789 46 4.563 45.6805 5.121 45.121C5.6805 44.563 6 43.7905 6 43C6 42.2095 5.6805 41.437 5.121 40.879C4.563 40.3195 3.789 40 3 40C2.2095 40 1.437 40.3195 0.8775 40.879C0.3195 41.437 0 42.2095 0 43C0 43.7905 0.3195 44.563 0.8775 45.121C1.437 45.6805 2.2095 46 3 46Z" fill="#130D3A"/>
<path fill-rule="evenodd" clip-rule="evenodd" d="M35.9925 46H36.0075C37.6608 46 39 44.656 39 43C39 41.344 37.6608 40 36.0075 40H35.9925C34.3406 40 33 41.344 33 43C33 44.656 34.3406 46 35.9925 46Z" fill="#130D3A"/>
<path fill-rule="evenodd" clip-rule="evenodd" d="M19.9925 46H20.0075C21.6594 46 23 44.656 23 43C23 41.344 21.6594 40 20.0075 40H19.9925C18.3406 40 17 41.344 17 43C17 44.656 18.3406 46 19.9925 46Z" fill="#130D3A"/>
<path fill-rule="evenodd" clip-rule="evenodd" d="M53 46C53.789 46 54.563 45.6805 55.121 45.121C55.6805 44.563 56 43.7905 56 43C56 42.2095 55.6805 41.437 55.121 40.879C54.563 40.3195 53.789 40 53 40C52.2095 40 51.437 40.3195 50.8775 40.879C50.3195 41.437 50 42.2095 50 43C50 43.7905 50.3195 44.563 50.8775 45.121C51.437 45.6805 52.2095 46 53 46Z" fill="#130D3A"/>
<path fill-rule="evenodd" clip-rule="evenodd" d="M70 46C70.7905 46 71.563 45.6805 72.1225 45.121C72.6805 44.563 73 43.7905 73 43C73 42.2095 72.6805 41.437 72.1225 40.879C71.563 40.3195 70.7905 40 70 40C69.211 40 68.437 40.3195 67.879 40.879C67.3195 41.437 67 42.2095 67 43C67 43.7905 67.3195 44.563 67.879 45.121C68.437 45.6805 69.211 46 70 46Z" fill="#130D3A"/>
<path fill-rule="evenodd" clip-rule="evenodd" d="M102.993 46H103.007C104.661 46 106 44.656 106 43C106 41.344 104.661 40 103.007 40H102.993C101.341 40 100 41.344 100 43C100 44.656 101.341 46 102.993 46Z" fill="#130D3A"/>
<path fill-rule="evenodd" clip-rule="evenodd" d="M85.9925 46H86.0075C87.6594 46 89 44.656 89 43C89 41.344 87.6594 40 86.0075 40H85.9925C84.3406 40 83 41.344 83 43C83 44.656 84.3406 46 85.9925 46Z" fill="#130D3A"/>
<mask id="mask3_127_199" style="mask-type:luminance" maskUnits="userSpaceOnUse" x="116" y="40" width="7" height="7">
<path fill-rule="evenodd" clip-rule="evenodd" d="M116.303 40.4768H122.702V46.8768H116.303V40.4768Z" fill="white"/>
</mask>
<g mask="url(#mask3_127_199)">
<path fill-rule="evenodd" clip-rule="evenodd" d="M119.503 46.8768C120.344 46.8768 121.17 46.536 121.765 45.9392C122.362 45.344 122.703 44.52 122.703 43.6768C122.703 42.8336 122.362 42.0096 121.765 41.4144C121.17 40.8176 120.344 40.4768 119.503 40.4768C118.66 40.4768 117.836 40.8176 117.239 41.4144C116.644 42.0096 116.303 42.8336 116.303 43.6768C116.303 44.52 116.644 45.344 117.239 45.9392C117.836 46.536 118.66 46.8768 119.503 46.8768Z" fill="#130D3A"/>
</g>
<path fill-rule="evenodd" clip-rule="evenodd" d="M3 60C3.789 60 4.563 59.6805 5.121 59.121C5.6805 58.563 6 57.7905 6 57C6 56.211 5.6805 55.437 5.121 54.879C4.563 54.3195 3.789 54 3 54C2.2095 54 1.437 54.3195 0.8775 54.879C0.3195 55.437 0 56.211 0 57C0 57.7905 0.3195 58.563 0.8775 59.121C1.437 59.6805 2.2095 60 3 60Z" fill="#130D3A"/>
<path fill-rule="evenodd" clip-rule="evenodd" d="M35.9925 60H36.0075C37.6608 60 39 58.656 39 57C39 55.344 37.6608 54 36.0075 54H35.9925C34.3406 54 33 55.344 33 57C33 58.656 34.3406 60 35.9925 60Z" fill="#130D3A"/>
<path fill-rule="evenodd" clip-rule="evenodd" d="M19.9925 60H20.0075C21.6594 60 23 58.656 23 57C23 55.344 21.6594 54 20.0075 54H19.9925C18.3406 54 17 55.344 17 57C17 58.656 18.3406 60 19.9925 60Z" fill="#130D3A"/>
<path fill-rule="evenodd" clip-rule="evenodd" d="M53 60C53.789 60 54.563 59.6805 55.121 59.121C55.6805 58.563 56 57.7905 56 57C56 56.211 55.6805 55.437 55.121 54.879C54.563 54.3195 53.789 54 53 54C52.2095 54 51.437 54.3195 50.8775 54.879C50.3195 55.437 50 56.211 50 57C50 57.7905 50.3195 58.563 50.8775 59.121C51.437 59.6805 52.2095 60 53 60Z" fill="#130D3A"/>
<path fill-rule="evenodd" clip-rule="evenodd" d="M70 60C70.7905 60 71.563 59.6805 72.1225 59.121C72.6805 58.563 73 57.7905 73 57C73 56.211 72.6805 55.437 72.1225 54.879C71.563 54.3195 70.7905 54 70 54C69.211 54 68.437 54.3195 67.879 54.879C67.3195 55.437 67 56.211 67 57C67 57.7905 67.3195 58.563 67.879 59.121C68.437 59.6805 69.211 60 70 60Z" fill="#130D3A"/>
<path fill-rule="evenodd" clip-rule="evenodd" d="M102.993 60H103.007C104.661 60 106 58.656 106 57C106 55.344 104.661 54 103.007 54H102.993C101.341 54 100 55.344 100 57C100 58.656 101.341 60 102.993 60Z" fill="#130D3A"/>
<path fill-rule="evenodd" clip-rule="evenodd" d="M85.9925 60H86.0075C87.6594 60 89 58.656 89 57C89 55.344 87.6594 54 86.0075 54H85.9925C84.3406 54 83 55.344 83 57C83 58.656 84.3406 60 85.9925 60Z" fill="#130D3A"/>
<mask id="mask4_127_199" style="mask-type:luminance" maskUnits="userSpaceOnUse" x="116" y="53" width="7" height="7">
<path fill-rule="evenodd" clip-rule="evenodd" d="M116.303 53.2214H122.702V59.6214H116.303V53.2214Z" fill="white"/>
</mask>
<g mask="url(#mask4_127_199)">
<path fill-rule="evenodd" clip-rule="evenodd" d="M119.503 59.6214C120.344 59.6214 121.17 59.2806 121.765 58.6838C122.362 58.0886 122.703 57.2646 122.703 56.4214C122.703 55.5798 122.362 54.7542 121.765 54.159C121.17 53.5622 120.344 53.2214 119.503 53.2214C118.66 53.2214 117.836 53.5622 117.239 54.159C116.644 54.7542 116.303 55.5798 116.303 56.4214C116.303 57.2646 116.644 58.0886 117.239 58.6838C117.836 59.2806 118.66 59.6214 119.503 59.6214Z" fill="#130D3A"/>
</g>
<path fill-rule="evenodd" clip-rule="evenodd" d="M3 73C3.789 73 4.563 72.6805 5.121 72.1225C5.6805 71.563 6 70.7905 6 70C6 69.211 5.6805 68.437 5.121 67.879C4.563 67.3195 3.789 67 3 67C2.2095 67 1.437 67.3195 0.8775 67.879C0.3195 68.437 0 69.211 0 70C0 70.7905 0.3195 71.563 0.8775 72.1225C1.437 72.6805 2.2095 73 3 73Z" fill="#130D3A"/>
<path fill-rule="evenodd" clip-rule="evenodd" d="M35.9925 73H36.0075C37.6608 73 39 71.656 39 70C39 68.344 37.6608 67 36.0075 67H35.9925C34.3406 67 33 68.344 33 70C33 71.656 34.3406 73 35.9925 73" fill="#130D3A"/>
<path fill-rule="evenodd" clip-rule="evenodd" d="M19.9925 73H20.0075C21.6594 73 23 71.656 23 70C23 68.344 21.6594 67 20.0075 67H19.9925C18.3406 67 17 68.344 17 70C17 71.656 18.3406 73 19.9925 73Z" fill="#130D3A"/>
<path fill-rule="evenodd" clip-rule="evenodd" d="M53 73C53.789 73 54.563 72.6805 55.121 72.1225C55.6805 71.563 56 70.7905 56 70C56 69.211 55.6805 68.437 55.121 67.879C54.563 67.3195 53.789 67 53 67C52.2095 67 51.437 67.3195 50.8775 67.879C50.3195 68.437 50 69.211 50 70C50 70.7905 50.3195 71.563 50.8775 72.1225C51.437 72.6805 52.2095 73 53 73Z" fill="#130D3A"/>
<path fill-rule="evenodd" clip-rule="evenodd" d="M70 73C70.7905 73 71.563 72.6805 72.1225 72.1225C72.6805 71.563 73 70.7905 73 70C73 69.211 72.6805 68.437 72.1225 67.879C71.563 67.3195 70.7905 67 70 67C69.211 67 68.437 67.3195 67.879 67.879C67.3195 68.437 67 69.211 67 70C67 70.7905 67.3195 71.563 67.879 72.1225C68.437 72.6805 69.211 73 70 73Z" fill="#130D3A"/>
<path fill-rule="evenodd" clip-rule="evenodd" d="M102.993 73H103.007C104.661 73 106 71.656 106 70C106 68.344 104.661 67 103.007 67H102.993C101.341 67 100 68.344 100 70C100 71.656 101.341 73 102.993 73Z" fill="#130D3A"/>
<path fill-rule="evenodd" clip-rule="evenodd" d="M85.9925 73H86.0075C87.6594 73 89 71.656 89 70C89 68.344 87.6594 67 86.0075 67H85.9925C84.3406 67 83 68.344 83 70C83 71.656 84.3406 73 85.9925 73Z" fill="#130D3A"/>
<mask id="mask5_127_199" style="mask-type:luminance" maskUnits="userSpaceOnUse" x="116" y="66" width="7" height="7">
<path fill-rule="evenodd" clip-rule="evenodd" d="M116.303 66.5659H122.702V72.9659H116.303V66.5659Z" fill="white"/>
</mask>
<g mask="url(#mask5_127_199)">
<path fill-rule="evenodd" clip-rule="evenodd" d="M119.503 72.9659C120.344 72.9659 121.17 72.6251 121.765 72.0299C122.362 71.4331 122.703 70.6091 122.703 69.7659C122.703 68.9243 122.362 68.0987 121.765 67.5035C121.17 66.9067 120.344 66.5659 119.503 66.5659C118.66 66.5659 117.836 66.9067 117.239 67.5035C116.644 68.0987 116.303 68.9243 116.303 69.7659C116.303 70.6091 116.644 71.4331 117.239 72.0299C117.836 72.6251 118.66 72.9659 119.503 72.9659Z" fill="#130D3A"/>
</g>
<path fill-rule="evenodd" clip-rule="evenodd" d="M3 86C3.789 86 4.563 85.6805 5.121 85.121C5.6805 84.563 6 83.7905 6 83C6 82.211 5.6805 81.437 5.121 80.879C4.563 80.3195 3.789 80 3 80C2.2095 80 1.437 80.3195 0.8775 80.879C0.3195 81.437 0 82.211 0 83C0 83.7905 0.3195 84.563 0.8775 85.121C1.437 85.6805 2.2095 86 3 86Z" fill="#130D3A"/>
<path fill-rule="evenodd" clip-rule="evenodd" d="M35.9925 86H36.0075C37.6608 86 39 84.656 39 83C39 81.344 37.6608 80 36.0075 80H35.9925C34.3406 80 33 81.344 33 83C33 84.656 34.3406 86 35.9925 86Z" fill="#130D3A"/>
<path fill-rule="evenodd" clip-rule="evenodd" d="M19.9925 86H20.0075C21.6594 86 23 84.656 23 83C23 81.344 21.6594 80 20.0075 80H19.9925C18.3406 80 17 81.344 17 83C17 84.656 18.3406 86 19.9925 86Z" fill="#130D3A"/>
<path fill-rule="evenodd" clip-rule="evenodd" d="M53 86C53.789 86 54.563 85.6805 55.121 85.121C55.6805 84.563 56 83.7905 56 83C56 82.211 55.6805 81.437 55.121 80.879C54.563 80.3195 53.789 80 53 80C52.2095 80 51.437 80.3195 50.8775 80.879C50.3195 81.437 50 82.211 50 83C50 83.7905 50.3195 84.563 50.8775 85.121C51.437 85.6805 52.2095 86 53 86Z" fill="#130D3A"/>
<path fill-rule="evenodd" clip-rule="evenodd" d="M70 86C70.7905 86 71.563 85.6805 72.1225 85.121C72.6805 84.563 73 83.7905 73 83C73 82.211 72.6805 81.437 72.1225 80.879C71.563 80.3195 70.7905 80 70 80C69.211 80 68.437 80.3195 67.879 80.879C67.3195 81.437 67 82.211 67 83C67 83.7905 67.3195 84.563 67.879 85.121C68.437 85.6805 69.211 86 70 86Z" fill="#130D3A"/>
<path fill-rule="evenodd" clip-rule="evenodd" d="M102.993 86H103.007C104.661 86 106 84.656 106 83C106 81.344 104.661 80 103.007 80H102.993C101.341 80 100 81.344 100 83C100 84.656 101.341 86 102.993 86Z" fill="#130D3A"/>
<path fill-rule="evenodd" clip-rule="evenodd" d="M85.9925 86H86.0075C87.6594 86 89 84.656 89 83C89 81.344 87.6594 80 86.0075 80H85.9925C84.3406 80 83 81.344 83 83C83 84.656 84.3406 86 85.9925 86Z" fill="#130D3A"/>
<mask id="mask6_127_199" style="mask-type:luminance" maskUnits="userSpaceOnUse" x="116" y="79" width="7" height="8">
<path fill-rule="evenodd" clip-rule="evenodd" d="M116.303 79.9104H122.702V86.3104H116.303V79.9104Z" fill="white"/>
</mask>
<g mask="url(#mask6_127_199)">
<path fill-rule="evenodd" clip-rule="evenodd" d="M119.503 86.3104C120.344 86.3104 121.17 85.9696 121.765 85.3728C122.362 84.7776 122.703 83.9536 122.703 83.1104C122.703 82.2688 122.362 81.4432 121.765 80.848C121.17 80.2512 120.344 79.9104 119.503 79.9104C118.66 79.9104 117.836 80.2512 117.239 80.848C116.644 81.4432 116.303 82.2688 116.303 83.1104C116.303 83.9536 116.644 84.7776 117.239 85.3728C117.836 85.9696 118.66 86.3104 119.503 86.3104Z" fill="#130D3A"/>
</g>
<path fill-rule="evenodd" clip-rule="evenodd" d="M3 99C3.789 99 4.563 98.6805 5.121 98.1225C5.6805 97.563 6 96.7905 6 96C6 95.211 5.6805 94.437 5.121 93.879C4.563 93.3195 3.789 93 3 93C2.2095 93 1.437 93.3195 0.8775 93.879C0.3195 94.437 0 95.211 0 96C0 96.7905 0.3195 97.563 0.8775 98.1225C1.437 98.6805 2.2095 99 3 99Z" fill="#130D3A"/>
<path fill-rule="evenodd" clip-rule="evenodd" d="M35.9925 99H36.0075C37.6608 99 39 97.6575 39 96C39 94.344 37.6608 93 36.0075 93H35.9925C34.3406 93 33 94.344 33 96C33 97.6575 34.3406 99 35.9925 99Z" fill="#130D3A"/>
<path fill-rule="evenodd" clip-rule="evenodd" d="M19.9925 99H20.0075C21.6594 99 23 97.6575 23 96C23 94.344 21.6594 93 20.0075 93H19.9925C18.3406 93 17 94.344 17 96C17 97.6575 18.3406 99 19.9925 99Z" fill="#130D3A"/>
<path fill-rule="evenodd" clip-rule="evenodd" d="M53 99C53.789 99 54.563 98.6805 55.121 98.1225C55.6805 97.563 56 96.7905 56 96C56 95.211 55.6805 94.437 55.121 93.879C54.563 93.3195 53.789 93 53 93C52.2095 93 51.437 93.3195 50.8775 93.879C50.3195 94.437 50 95.211 50 96C50 96.7905 50.3195 97.563 50.8775 98.1225C51.437 98.6805 52.2095 99 53 99Z" fill="#130D3A"/>
<path fill-rule="evenodd" clip-rule="evenodd" d="M70 99C70.7905 99 71.563 98.6805 72.1225 98.1225C72.6805 97.563 73 96.7905 73 96C73 95.211 72.6805 94.437 72.1225 93.879C71.563 93.3195 70.7905 93 70 93C69.211 93 68.437 93.3195 67.879 93.879C67.3195 94.437 67 95.211 67 96C67 96.7905 67.3195 97.563 67.879 98.1225C68.437 98.6805 69.211 99 70 99Z" fill="#130D3A"/>
<path fill-rule="evenodd" clip-rule="evenodd" d="M102.993 99H103.007C104.661 99 106 97.6575 106 96C106 94.344 104.661 93 103.007 93H102.993C101.341 93 100 94.344 100 96C100 97.6575 101.341 99 102.993 99Z" fill="#130D3A"/>
<path fill-rule="evenodd" clip-rule="evenodd" d="M85.9925 99H86.0075C87.6594 99 89 97.6575 89 96C89 94.344 87.6594 93 86.0075 93H85.9925C84.3406 93 83 94.344 83 96C83 97.6575 84.3406 99 85.9925 99Z" fill="#130D3A"/>
<mask id="mask7_127_199" style="mask-type:luminance" maskUnits="userSpaceOnUse" x="116" y="93" width="7" height="7">
<path fill-rule="evenodd" clip-rule="evenodd" d="M116.303 93.2551H122.702V99.6551H116.303V93.2551Z" fill="white"/>
</mask>
<g mask="url(#mask7_127_199)">
<path fill-rule="evenodd" clip-rule="evenodd" d="M119.503 99.6551C120.344 99.6551 121.17 99.3143 121.765 98.7191C122.362 98.1223 122.703 97.2983 122.703 96.4551C122.703 95.6135 122.362 94.7879 121.765 94.1927C121.17 93.5959 120.344 93.2551 119.503 93.2551C118.66 93.2551 117.836 93.5959 117.239 94.1927C116.644 94.7879 116.303 95.6135 116.303 96.4551C116.303 97.2983 116.644 98.1223 117.239 98.7191C117.836 99.3143 118.66 99.6551 119.503 99.6551Z" fill="#130D3A"/>
</g>
<mask id="mask8_127_199" style="mask-type:luminance" maskUnits="userSpaceOnUse" x="0" y="106" width="7" height="7">
<path fill-rule="evenodd" clip-rule="evenodd" d="M0.000244141 106H6.00024V112H0.000244141V106Z" fill="white"/>
</mask>
<g mask="url(#mask8_127_199)">
<path fill-rule="evenodd" clip-rule="evenodd" d="M3.00024 112C3.78924 112 4.56324 111.681 5.12124 111.121C5.68074 110.563 6.00024 109.789 6.00024 109C6.00024 108.21 5.68074 107.437 5.12124 106.878C4.56324 106.32 3.78924 106 3.00024 106C2.20974 106 1.43724 106.32 0.877744 106.878C0.319744 107.437 0.000244141 108.21 0.000244141 109C0.000244141 109.789 0.319744 110.563 0.877744 111.121C1.43724 111.681 2.20974 112 3.00024 112Z" fill="#130D3A"/>
</g>
<mask id="mask9_127_199" style="mask-type:luminance" maskUnits="userSpaceOnUse" x="32" y="106" width="8" height="7">
<path fill-rule="evenodd" clip-rule="evenodd" d="M32.9924 106H39.4084V112H32.9924V106Z" fill="white"/>
</mask>
<g mask="url(#mask9_127_199)">
<path fill-rule="evenodd" clip-rule="evenodd" d="M36.1924 112H36.2084C37.9764 112 39.4084 110.656 39.4084 109C39.4084 107.343 37.9764 106 36.2084 106H36.1924C34.426 106 32.9924 107.343 32.9924 109C32.9924 110.656 34.426 112 36.1924 112Z" fill="#130D3A"/>
</g>
<mask id="mask10_127_199" style="mask-type:luminance" maskUnits="userSpaceOnUse" x="16" y="106" width="7" height="7">
<path fill-rule="evenodd" clip-rule="evenodd" d="M16.4924 106H22.9084V112H16.4924V106Z" fill="white"/>
</mask>
<g mask="url(#mask10_127_199)">
<path fill-rule="evenodd" clip-rule="evenodd" d="M19.6924 112H19.7084C21.4748 112 22.9084 110.656 22.9084 109C22.9084 107.343 21.4748 106 19.7084 106H19.6924C17.926 106 16.4924 107.343 16.4924 109C16.4924 110.656 17.926 112 19.6924 112Z" fill="#130D3A"/>
</g>
<mask id="mask11_127_199" style="mask-type:luminance" maskUnits="userSpaceOnUse" x="49" y="106" width="7" height="7">
<path fill-rule="evenodd" clip-rule="evenodd" d="M49.5011 106H55.9011V112H49.5011V106Z" fill="white"/>
</mask>
<g mask="url(#mask11_127_199)">
<path fill-rule="evenodd" clip-rule="evenodd" d="M52.7011 112C53.5427 112 54.3683 111.681 54.9635 111.121C55.5603 110.563 55.9011 109.789 55.9011 109C55.9011 108.21 55.5603 107.437 54.9635 106.878C54.3683 106.32 53.5427 106 52.7011 106C51.8579 106 51.0339 106.32 50.4371 106.878C49.8419 107.437 49.5011 108.21 49.5011 109C49.5011 109.789 49.8419 110.563 50.4371 111.121C51.0339 111.681 51.8579 112 52.7011 112Z" fill="#130D3A"/>
</g>
<mask id="mask12_127_199" style="mask-type:luminance" maskUnits="userSpaceOnUse" x="66" y="106" width="7" height="7">
<path fill-rule="evenodd" clip-rule="evenodd" d="M66.4011 106H72.8011V112H66.4011V106Z" fill="white"/>
</mask>
<g mask="url(#mask12_127_199)">
<path fill-rule="evenodd" clip-rule="evenodd" d="M69.6011 112C70.4443 112 71.2683 111.681 71.8651 111.121C72.4603 110.563 72.8011 109.789 72.8011 109C72.8011 108.21 72.4603 107.437 71.8651 106.878C71.2683 106.32 70.4443 106 69.6011 106C68.7595 106 67.9339 106.32 67.3387 106.878C66.7419 107.437 66.4011 108.21 66.4011 109C66.4011 109.789 66.7419 110.563 67.3387 111.121C67.9339 111.681 68.7595 112 69.6011 112Z" fill="#130D3A"/>
</g>
<mask id="mask13_127_199" style="mask-type:luminance" maskUnits="userSpaceOnUse" x="99" y="106" width="7" height="7">
<path fill-rule="evenodd" clip-rule="evenodd" d="M99.394 106H105.81V112H99.394V106Z" fill="white"/>
</mask>
<g mask="url(#mask13_127_199)">
<path fill-rule="evenodd" clip-rule="evenodd" d="M102.594 112H102.61C104.378 112 105.81 110.656 105.81 109C105.81 107.343 104.378 106 102.61 106H102.594C100.828 106 99.394 107.343 99.394 109C99.394 110.656 100.828 112 102.594 112Z" fill="#130D3A"/>
</g>
<mask id="mask14_127_199" style="mask-type:luminance" maskUnits="userSpaceOnUse" x="82" y="106" width="8" height="7">
<path fill-rule="evenodd" clip-rule="evenodd" d="M82.894 106H89.31V112H82.894V106Z" fill="white"/>
</mask>
<g mask="url(#mask14_127_199)">
<path fill-rule="evenodd" clip-rule="evenodd" d="M86.094 112H86.11C87.8764 112 89.31 110.656 89.31 109C89.31 107.343 87.8764 106 86.11 106H86.094C84.3276 106 82.894 107.343 82.894 109C82.894 110.656 84.3276 112 86.094 112Z" fill="#130D3A"/>
</g>
<mask id="mask15_127_199" style="mask-type:luminance" maskUnits="userSpaceOnUse" x="116" y="106" width="7" height="7">
<path fill-rule="evenodd" clip-rule="evenodd" d="M116.303 106H122.702V112H116.303V106Z" fill="white"/>
</mask>
<g mask="url(#mask15_127_199)">
<path fill-rule="evenodd" clip-rule="evenodd" d="M119.503 112C120.344 112 121.17 111.681 121.765 111.121C122.362 110.563 122.703 109.789 122.703 109C122.703 108.21 122.362 107.437 121.765 106.878C121.17 106.32 120.344 106 119.503 106C118.66 106 117.836 106.32 117.239 106.878C116.644 107.437 116.303 108.21 116.303 109C116.303 109.789 116.644 110.563 117.239 111.121C117.836 111.681 118.66 112 119.503 112Z" fill="#130D3A"/>
</g>
</svg>
