<svg width="1231" height="199" viewBox="0 0 1231 199" fill="none" xmlns="http://www.w3.org/2000/svg">
<path opacity="0.5" d="M98.9863 71.9785H185.852C191.418 80.084 194.201 89.9473 194.201 101.568C194.201 113.092 191.809 122.467 187.023 129.693H181.018V173.639C161.779 190.338 136.389 198.688 104.846 198.688C85.6074 198.688 68.5176 195.27 53.5762 188.434C37.2676 181.109 24.6211 170.416 15.6367 156.354C5.77344 140.924 0.841797 121.979 0.841797 99.5176C0.841797 67.584 10.4121 42.877 29.5527 25.3965C47.7168 8.69727 72.3262 0.347656 103.381 0.347656C118.713 0.347656 133.166 2.64258 146.74 7.23242C160.412 11.8223 171.203 17.5352 179.113 24.3711C179.113 30.2305 178.381 37.4082 176.916 45.9043C175.549 54.4004 173.791 60.8945 171.643 65.3867H94.4453C91.3203 68.707 88.3418 73.4922 85.5098 79.7422C82.7754 85.9922 81.4082 93.1699 81.4082 101.275C81.4082 112.408 84.1914 121.148 89.7578 127.496C94.6406 133.258 100.891 136.139 108.508 136.139C111.633 136.139 113.195 135.064 113.195 132.916V129.547H111.584C105.139 129.547 99.7676 127.057 95.4707 122.076C91.2715 116.998 89.1719 109.771 89.1719 100.396C89.1719 88.6777 92.4434 79.2051 98.9863 71.9785ZM234.045 194.146C223.205 194.146 214.807 191.266 208.85 185.504C202.99 179.742 200.061 171.051 200.061 159.43V16.168C205.236 11.7734 211.535 8.4043 218.957 6.06055C226.477 3.61914 234.24 2.39844 242.248 2.39844C254.064 2.39844 264.074 5.32812 272.277 11.1875C281.164 17.8281 285.607 27.0078 285.607 38.7266V118.854C280.139 119.342 274.768 120.904 269.494 123.541C264.221 126.08 261.584 128.717 261.584 131.451C261.584 133.111 262.512 134.527 264.367 135.699C274.035 127.594 288.391 123.541 307.434 123.541H342.15C348.596 134.869 351.818 146.441 351.818 158.258C351.818 164.117 350.793 170.611 348.742 177.74C346.691 184.869 343.957 190.338 340.539 194.146H234.045ZM451.281 92.9258C451.281 83.1602 450.842 76.4707 449.963 72.8574C449.084 69.1465 447.473 67.291 445.129 67.291C443.664 67.291 442.346 67.7793 441.174 68.7559C441.369 70.5137 441.662 72.8574 442.053 75.7871C442.443 78.7168 442.639 84.9668 442.639 94.5371V104.059C442.639 110.699 442.492 115.533 442.199 118.561C441.906 121.588 441.662 124.176 441.467 126.324C441.369 127.496 441.271 128.668 441.174 129.84C442.346 130.816 443.664 131.305 445.129 131.305C447.473 131.305 449.084 129.498 449.963 125.885C450.842 122.174 451.281 115.436 451.281 105.67V92.9258ZM445.422 198.688C428.039 198.688 412.072 195.123 397.521 187.994C383.068 180.768 371.398 169.781 362.512 155.035C353.625 140.191 349.182 121.686 349.182 99.5176C349.182 67.3887 358.85 42.291 378.186 24.2246C395.373 8.30664 417.492 0.347656 444.543 0.347656C473.938 0.347656 497.18 9.47852 514.27 27.7402C531.457 45.9043 540.051 69.8301 540.051 99.5176C540.051 132.525 530.871 157.721 512.512 175.104C495.812 190.826 473.449 198.688 445.422 198.688ZM623.547 196.49C614.074 196.49 606.164 195.758 599.816 194.293C591.027 192.438 584.582 189.557 580.48 185.65C571.301 166.217 563.439 144.928 556.896 121.783C547.814 89.752 541.467 56.6953 537.854 22.6133C542.248 16.168 548.254 11.1875 555.871 7.67188C563.488 4.05859 571.984 2.25195 581.359 2.25195C595.422 2.25195 606.457 4.9375 614.465 10.3086C622.57 15.6797 626.623 23.3457 626.623 33.3066C625.939 40.7285 625.305 51.6172 624.719 65.9727C624.23 80.3281 623.986 93.3164 623.986 104.938C623.986 108.16 624.279 110.699 624.865 112.555C625.549 114.312 626.916 115.191 628.967 115.191C629.748 115.191 630.725 115.045 631.896 114.752C631.799 113.873 631.75 112.408 631.75 110.357V105.23C631.75 91.0703 632.238 74.7617 633.215 56.3047C634.191 37.75 635.363 23.9316 636.73 14.8496C645.617 9.38086 656.066 6.64648 668.078 6.64648C680.09 6.64648 689.758 8.30664 697.082 11.627C705.871 15.7285 710.51 21.7344 710.998 29.6445C710.51 39.2148 709.582 48.6387 708.215 57.916C706.945 67.1934 705.383 77.8867 703.527 89.9961C701.672 102.105 700.5 110.113 700.012 114.02C700.793 114.41 701.818 114.605 703.088 114.605C704.357 114.605 705.529 114.117 706.604 113.141C707.678 112.164 708.557 109.82 709.24 106.109C712.268 90.4844 714.758 74.0293 716.711 56.7441C718.664 39.3613 719.934 24.2246 720.52 11.334C729.504 5.2793 741.906 2.25195 757.727 2.25195C770.52 2.25195 780.725 5.66992 788.342 12.5059C795.959 19.2441 799.768 28.3262 799.768 39.752C799.768 47.3691 796.154 67.3398 788.928 99.6641C785.217 116.656 781.652 131.207 778.234 143.316C774.816 155.328 772.033 163.775 769.885 168.658C765.393 178.521 758.654 185.65 749.67 190.045C740.783 194.342 729.406 196.49 715.539 196.49C709.973 196.49 703.527 195.66 696.203 194C688.977 192.34 683.459 190.484 679.65 188.434C677.697 185.406 675.5 180.816 673.059 174.664C670.617 168.512 669.104 163.873 668.518 160.748C664.709 160.846 662.805 162.896 662.805 166.9C662.805 170.025 664.318 175.787 667.346 184.186C657.092 192.389 642.492 196.49 623.547 196.49ZM1003.09 2.39844C1014.81 2.39844 1024.96 5.57227 1033.56 11.9199C1042.15 18.2676 1046.45 27.3008 1046.45 39.0195V120.465C1046.45 145.27 1038.88 164.41 1023.74 177.887C1008.61 191.266 987.658 197.955 960.9 197.955C934.24 197.955 913.488 191.363 898.645 178.18C883.508 164.996 875.939 145.758 875.939 120.465V16.0215C887.463 6.8418 900.793 2.25195 915.93 2.25195C928.625 2.25195 938.684 5.62109 946.105 12.3594C953.527 19 957.238 29.1074 957.238 42.6816V128.082C958.312 128.863 959.533 129.254 960.9 129.254C962.365 129.254 963.391 128.912 963.977 128.229C964.66 127.447 965.002 126.031 965.002 123.98V42.5352C965.002 36.3828 964.709 31.5 964.123 27.8867C963.537 24.2734 962.365 20.6602 960.607 17.0469C972.326 7.28125 986.486 2.39844 1003.09 2.39844ZM1139.17 95.709C1139.56 96.002 1140.69 96.1484 1142.54 96.1484C1144.4 96.1484 1145.81 95.416 1146.79 93.9512C1147.77 92.4863 1148.25 90.0938 1148.25 86.7734V75.6406C1148.25 72.125 1147.81 69.6348 1146.94 68.1699C1146.15 66.6074 1144.79 65.8262 1142.83 65.8262C1140.98 65.8262 1139.71 66.0215 1139.03 66.4121C1139.12 66.9004 1139.17 67.7305 1139.17 68.9023V95.709ZM1142.83 161.92V184.332C1138.54 187.945 1132.48 190.924 1124.67 193.268C1116.86 195.514 1108.7 196.637 1100.21 196.637C1088.1 196.637 1078.19 194.293 1070.47 189.605C1061.68 184.234 1057.29 176.471 1057.29 166.314V27.1543C1057.29 24.0293 1059.39 20.9043 1063.59 17.7793C1067.88 14.6543 1073.79 11.8223 1081.31 9.2832C1097.42 3.81445 1115.83 1.08008 1136.54 1.08008C1165.15 1.08008 1187.95 8.20898 1204.94 22.4668C1221.94 36.7246 1230.43 55.9141 1230.43 80.0352C1230.43 104.059 1222.77 122.76 1207.43 136.139C1192.69 148.834 1172.23 155.182 1146.06 155.182C1140.1 155.182 1133.7 154.498 1126.87 153.131C1120.13 151.666 1115.59 150.396 1113.24 149.322C1112.46 150.104 1112.07 151.178 1112.07 152.545C1112.07 157.525 1122.33 160.65 1142.83 161.92Z" fill="#FFFAF8"/>
</svg>
